<svg id="visual" viewBox="0 0 540 960" width="540" height="960" xmlns="http://www.w3.org/2000/svg" xmlns:xlink="http://www.w3.org/1999/xlink" version="1.1"><rect x="0" y="0" width="540" height="960" fill="#001220"></rect><defs><linearGradient id="grad1_0" x1="0%" y1="0%" x2="100%" y2="100%"><stop offset="30%" stop-color="#001220" stop-opacity="1"></stop><stop offset="70%" stop-color="#001220" stop-opacity="1"></stop></linearGradient></defs><defs><linearGradient id="grad2_0" x1="0%" y1="0%" x2="100%" y2="100%"><stop offset="30%" stop-color="#001220" stop-opacity="1"></stop><stop offset="70%" stop-color="#001220" stop-opacity="1"></stop></linearGradient></defs><g transform="translate(540, 0)"><path d="M0 486C-70.5 483.2 -141.1 480.4 -182.9 441.6C-224.8 402.8 -238 327.9 -284.3 284.3C-330.5 240.6 -409.9 228.2 -449 186C-488.1 143.8 -487.1 71.9 -486 0L0 0Z" fill="#F7770F"></path></g><g transform="translate(0, 960)"><path d="M0 -486C51.8 -438.7 103.6 -391.3 148.9 -359.4C194.2 -327.4 233 -310.9 287.8 -287.8C342.6 -264.7 413.3 -235 449 -186C484.7 -136.9 485.3 -68.5 486 0L0 0Z" fill="#F7770F"></path></g></svg>