<svg id="visual" viewBox="0 0 540 960" width="540" height="960" xmlns="http://www.w3.org/2000/svg" xmlns:xlink="http://www.w3.org/1999/xlink" version="1.1"><g stroke-width="1" stroke-linejoin="bevel"><path d="M291 490L267 527L325 504Z" fill="#ff7a0d" stroke="#ff7a0d"></path><path d="M267 527L324 573L325 504Z" fill="#7e3900" stroke="#7e3900"></path><path d="M259 542L324 573L267 527Z" fill="#f1730b" stroke="#f1730b"></path><path d="M343 437L271 454L291 490Z" fill="#bc5904" stroke="#bc5904"></path><path d="M291 490L255 458L267 527Z" fill="#d66607" stroke="#d66607"></path><path d="M267 527L205 509L259 542Z" fill="#f1730b" stroke="#f1730b"></path><path d="M271 454L255 458L291 490Z" fill="#964601" stroke="#964601"></path><path d="M324 573L361 579L325 504Z" fill="#f1730b" stroke="#f1730b"></path><path d="M255 458L205 509L267 527Z" fill="#8a3f01" stroke="#8a3f01"></path><path d="M361 579L393 515L325 504Z" fill="#d66607" stroke="#d66607"></path><path d="M325 504L343 437L291 490Z" fill="#e46d09" stroke="#e46d09"></path><path d="M393 515L343 437L325 504Z" fill="#e46d09" stroke="#e46d09"></path><path d="M361 579L384 569L393 515Z" fill="#c95f05" stroke="#c95f05"></path><path d="M193 544L230 603L259 542Z" fill="#964601" stroke="#964601"></path><path d="M259 542L230 603L324 573Z" fill="#af5203" stroke="#af5203"></path><path d="M324 573L325 641L361 579Z" fill="#af5203" stroke="#af5203"></path><path d="M205 509L193 544L259 542Z" fill="#f1730b" stroke="#f1730b"></path><path d="M343 437L314 401L271 454Z" fill="#8a3f01" stroke="#8a3f01"></path><path d="M271 454L256 389L255 458Z" fill="#d66607" stroke="#d66607"></path><path d="M230 603L325 641L324 573Z" fill="#f1730b" stroke="#f1730b"></path><path d="M361 579L385 617L384 569Z" fill="#e46d09" stroke="#e46d09"></path><path d="M395 387L337 398L343 437Z" fill="#af5203" stroke="#af5203"></path><path d="M343 437L337 398L314 401Z" fill="#f1730b" stroke="#f1730b"></path><path d="M325 641L385 617L361 579Z" fill="#7e3900" stroke="#7e3900"></path><path d="M384 569L442 499L393 515Z" fill="#7e3900" stroke="#7e3900"></path><path d="M314 401L256 389L271 454Z" fill="#964601" stroke="#964601"></path><path d="M255 458L186 417L205 509Z" fill="#d66607" stroke="#d66607"></path><path d="M332 359L256 389L314 401Z" fill="#af5203" stroke="#af5203"></path><path d="M193 544L202 624L230 603Z" fill="#964601" stroke="#964601"></path><path d="M230 603L290 683L325 641Z" fill="#c95f05" stroke="#c95f05"></path><path d="M457 599L442 499L384 569Z" fill="#c95f05" stroke="#c95f05"></path><path d="M393 515L442 499L343 437Z" fill="#f1730b" stroke="#f1730b"></path><path d="M256 389L186 417L255 458Z" fill="#7e3900" stroke="#7e3900"></path><path d="M123 454L133 569L193 544Z" fill="#a34c02" stroke="#a34c02"></path><path d="M215 695L290 683L230 603Z" fill="#a34c02" stroke="#a34c02"></path><path d="M325 641L355 685L385 617Z" fill="#e46d09" stroke="#e46d09"></path><path d="M442 499L395 387L343 437Z" fill="#a34c02" stroke="#a34c02"></path><path d="M337 398L332 359L314 401Z" fill="#e46d09" stroke="#e46d09"></path><path d="M395 387L332 359L337 398Z" fill="#d66607" stroke="#d66607"></path><path d="M123 454L193 544L205 509Z" fill="#bc5904" stroke="#bc5904"></path><path d="M193 544L133 569L202 624Z" fill="#bc5904" stroke="#bc5904"></path><path d="M290 683L320 692L325 641Z" fill="#c95f05" stroke="#c95f05"></path><path d="M320 692L355 685L325 641Z" fill="#d66607" stroke="#d66607"></path><path d="M385 617L457 599L384 569Z" fill="#7e3900" stroke="#7e3900"></path><path d="M355 685L412 653L385 617Z" fill="#a34c02" stroke="#a34c02"></path><path d="M412 653L457 599L385 617Z" fill="#f1730b" stroke="#f1730b"></path><path d="M186 417L123 454L205 509Z" fill="#964601" stroke="#964601"></path><path d="M187 687L215 695L202 624Z" fill="#f1730b" stroke="#f1730b"></path><path d="M202 624L215 695L230 603Z" fill="#d66607" stroke="#d66607"></path><path d="M290 683L324 746L320 692Z" fill="#af5203" stroke="#af5203"></path><path d="M305 318L229 338L256 389Z" fill="#964601" stroke="#964601"></path><path d="M256 389L229 338L186 417Z" fill="#d66607" stroke="#d66607"></path><path d="M186 417L147 368L123 454Z" fill="#c95f05" stroke="#c95f05"></path><path d="M505 487L481 450L442 499Z" fill="#7e3900" stroke="#7e3900"></path><path d="M442 499L481 450L395 387Z" fill="#8a3f01" stroke="#8a3f01"></path><path d="M187 687L217 703L215 695Z" fill="#bc5904" stroke="#bc5904"></path><path d="M215 695L217 703L290 683Z" fill="#d66607" stroke="#d66607"></path><path d="M153 659L187 687L202 624Z" fill="#f1730b" stroke="#f1730b"></path><path d="M110 604L153 659L202 624Z" fill="#a34c02" stroke="#a34c02"></path><path d="M395 387L361 329L332 359Z" fill="#af5203" stroke="#af5203"></path><path d="M332 359L305 318L256 389Z" fill="#e46d09" stroke="#e46d09"></path><path d="M443 361L361 329L395 387Z" fill="#af5203" stroke="#af5203"></path><path d="M361 329L305 318L332 359Z" fill="#964601" stroke="#964601"></path><path d="M540 604L496 571L519 650Z" fill="#7e3900" stroke="#7e3900"></path><path d="M457 599L496 571L442 499Z" fill="#c95f05" stroke="#c95f05"></path><path d="M133 569L110 604L202 624Z" fill="#f1730b" stroke="#f1730b"></path><path d="M99 583L110 604L133 569Z" fill="#c95f05" stroke="#c95f05"></path><path d="M90 555L99 583L133 569Z" fill="#c95f05" stroke="#c95f05"></path><path d="M496 571L505 487L442 499Z" fill="#c95f05" stroke="#c95f05"></path><path d="M540 413L453 379L481 450Z" fill="#e46d09" stroke="#e46d09"></path><path d="M481 450L453 379L395 387Z" fill="#f1730b" stroke="#f1730b"></path><path d="M123 454L90 555L133 569Z" fill="#964601" stroke="#964601"></path><path d="M194 331L147 368L186 417Z" fill="#7e3900" stroke="#7e3900"></path><path d="M123 454L81 471L90 555Z" fill="#d66607" stroke="#d66607"></path><path d="M453 379L443 361L395 387Z" fill="#e46d09" stroke="#e46d09"></path><path d="M177 259L194 331L229 338Z" fill="#c95f05" stroke="#c95f05"></path><path d="M229 338L194 331L186 417Z" fill="#e46d09" stroke="#e46d09"></path><path d="M78 439L81 471L123 454Z" fill="#964601" stroke="#964601"></path><path d="M303 774L324 746L290 683Z" fill="#f1730b" stroke="#f1730b"></path><path d="M320 692L324 746L355 685Z" fill="#7e3900" stroke="#7e3900"></path><path d="M355 685L394 755L412 653Z" fill="#7e3900" stroke="#7e3900"></path><path d="M519 650L496 571L457 599Z" fill="#964601" stroke="#964601"></path><path d="M99 583L95 629L110 604Z" fill="#7e3900" stroke="#7e3900"></path><path d="M110 604L95 629L153 659Z" fill="#f1730b" stroke="#f1730b"></path><path d="M153 659L123 718L187 687Z" fill="#7e3900" stroke="#7e3900"></path><path d="M0 570L95 629L99 583Z" fill="#7e3900" stroke="#7e3900"></path><path d="M0 570L99 583L90 555Z" fill="#e46d09" stroke="#e46d09"></path><path d="M147 368L78 439L123 454Z" fill="#af5203" stroke="#af5203"></path><path d="M81 471L50 484L90 555Z" fill="#af5203" stroke="#af5203"></path><path d="M496 571L540 518L505 487Z" fill="#d66607" stroke="#d66607"></path><path d="M505 487L540 413L481 450Z" fill="#c95f05" stroke="#c95f05"></path><path d="M449 262L428 292L540 304Z" fill="#e46d09" stroke="#e46d09"></path><path d="M540 518L540 507L505 487Z" fill="#7e3900" stroke="#7e3900"></path><path d="M78 439L50 484L81 471Z" fill="#e46d09" stroke="#e46d09"></path><path d="M324 746L394 755L355 685Z" fill="#ff7a0d" stroke="#ff7a0d"></path><path d="M496 571L540 604L540 518Z" fill="#e46d09" stroke="#e46d09"></path><path d="M217 703L303 774L290 683Z" fill="#c95f05" stroke="#c95f05"></path><path d="M324 746L303 774L394 755Z" fill="#a34c02" stroke="#a34c02"></path><path d="M235 786L303 774L217 703Z" fill="#a34c02" stroke="#a34c02"></path><path d="M154 746L217 703L187 687Z" fill="#f1730b" stroke="#f1730b"></path><path d="M519 650L457 599L412 653Z" fill="#964601" stroke="#964601"></path><path d="M519 712L519 650L412 653Z" fill="#ff7a0d" stroke="#ff7a0d"></path><path d="M361 329L314 263L305 318Z" fill="#7e3900" stroke="#7e3900"></path><path d="M305 318L276 255L229 338Z" fill="#ff7a0d" stroke="#ff7a0d"></path><path d="M348 233L314 263L361 329Z" fill="#d66607" stroke="#d66607"></path><path d="M194 331L142 315L147 368Z" fill="#af5203" stroke="#af5203"></path><path d="M147 368L47 378L78 439Z" fill="#7e3900" stroke="#7e3900"></path><path d="M0 440L0 453L50 484Z" fill="#e46d09" stroke="#e46d09"></path><path d="M177 259L142 315L194 331Z" fill="#c95f05" stroke="#c95f05"></path><path d="M540 362L443 361L453 379Z" fill="#d66607" stroke="#d66607"></path><path d="M443 361L428 292L361 329Z" fill="#d66607" stroke="#d66607"></path><path d="M88 693L123 718L153 659Z" fill="#bc5904" stroke="#bc5904"></path><path d="M540 507L540 413L505 487Z" fill="#d66607" stroke="#d66607"></path><path d="M314 263L276 255L305 318Z" fill="#ff7a0d" stroke="#ff7a0d"></path><path d="M123 718L154 746L187 687Z" fill="#964601" stroke="#964601"></path><path d="M95 629L88 693L153 659Z" fill="#f1730b" stroke="#f1730b"></path><path d="M123 718L65 742L154 746Z" fill="#d66607" stroke="#d66607"></path><path d="M0 695L88 693L95 629Z" fill="#8a3f01" stroke="#8a3f01"></path><path d="M198 781L235 786L217 703Z" fill="#e46d09" stroke="#e46d09"></path><path d="M519 712L540 649L519 650Z" fill="#ff7a0d" stroke="#ff7a0d"></path><path d="M519 650L540 649L540 604Z" fill="#ff7a0d" stroke="#ff7a0d"></path><path d="M154 746L198 781L217 703Z" fill="#7e3900" stroke="#7e3900"></path><path d="M394 755L480 743L412 653Z" fill="#964601" stroke="#964601"></path><path d="M454 809L480 743L394 755Z" fill="#f1730b" stroke="#f1730b"></path><path d="M301 810L394 755L303 774Z" fill="#7e3900" stroke="#7e3900"></path><path d="M276 255L177 259L229 338Z" fill="#7e3900" stroke="#7e3900"></path><path d="M42 306L47 378L142 315Z" fill="#ff7a0d" stroke="#ff7a0d"></path><path d="M142 315L47 378L147 368Z" fill="#8a3f01" stroke="#8a3f01"></path><path d="M263 829L301 810L235 786Z" fill="#d66607" stroke="#d66607"></path><path d="M235 786L301 810L303 774Z" fill="#c95f05" stroke="#c95f05"></path><path d="M540 413L540 362L453 379Z" fill="#d66607" stroke="#d66607"></path><path d="M480 743L519 712L412 653Z" fill="#ff7a0d" stroke="#ff7a0d"></path><path d="M411 231L348 233L428 292Z" fill="#a34c02" stroke="#a34c02"></path><path d="M428 292L348 233L361 329Z" fill="#af5203" stroke="#af5203"></path><path d="M314 263L324 184L276 255Z" fill="#8a3f01" stroke="#8a3f01"></path><path d="M276 255L217 217L177 259Z" fill="#a34c02" stroke="#a34c02"></path><path d="M449 262L444 262L428 292Z" fill="#8a3f01" stroke="#8a3f01"></path><path d="M0 453L0 541L50 484Z" fill="#a34c02" stroke="#a34c02"></path><path d="M50 484L0 541L90 555Z" fill="#7e3900" stroke="#7e3900"></path><path d="M540 304L428 292L443 361Z" fill="#bc5904" stroke="#bc5904"></path><path d="M444 262L411 231L428 292Z" fill="#bc5904" stroke="#bc5904"></path><path d="M0 541L0 570L90 555Z" fill="#964601" stroke="#964601"></path><path d="M0 440L50 484L78 439Z" fill="#c95f05" stroke="#c95f05"></path><path d="M47 378L0 440L78 439Z" fill="#a34c02" stroke="#a34c02"></path><path d="M209 876L263 829L235 786Z" fill="#f1730b" stroke="#f1730b"></path><path d="M540 814L540 733L480 743Z" fill="#ff7a0d" stroke="#ff7a0d"></path><path d="M449 262L411 231L444 262Z" fill="#e46d09" stroke="#e46d09"></path><path d="M227 188L217 217L276 255Z" fill="#8a3f01" stroke="#8a3f01"></path><path d="M102 241L90 264L142 315Z" fill="#bc5904" stroke="#bc5904"></path><path d="M324 184L314 263L348 233Z" fill="#ff7a0d" stroke="#ff7a0d"></path><path d="M29 744L65 742L88 693Z" fill="#964601" stroke="#964601"></path><path d="M88 693L65 742L123 718Z" fill="#a34c02" stroke="#a34c02"></path><path d="M154 746L142 802L198 781Z" fill="#964601" stroke="#964601"></path><path d="M198 781L209 876L235 786Z" fill="#c95f05" stroke="#c95f05"></path><path d="M65 742L142 802L154 746Z" fill="#f1730b" stroke="#f1730b"></path><path d="M436 815L394 755L321 846Z" fill="#c95f05" stroke="#c95f05"></path><path d="M480 743L540 733L519 712Z" fill="#f1730b" stroke="#f1730b"></path><path d="M519 712L540 733L540 649Z" fill="#8a3f01" stroke="#8a3f01"></path><path d="M321 846L394 755L301 810Z" fill="#964601" stroke="#964601"></path><path d="M540 362L540 304L443 361Z" fill="#8a3f01" stroke="#8a3f01"></path><path d="M449 262L414 187L411 231Z" fill="#af5203" stroke="#af5203"></path><path d="M302 921L321 846L263 829Z" fill="#ff7a0d" stroke="#ff7a0d"></path><path d="M263 829L321 846L301 810Z" fill="#a34c02" stroke="#a34c02"></path><path d="M436 815L454 809L394 755Z" fill="#af5203" stroke="#af5203"></path><path d="M102 241L142 315L177 259Z" fill="#964601" stroke="#964601"></path><path d="M47 378L0 343L0 440Z" fill="#f1730b" stroke="#f1730b"></path><path d="M90 264L42 306L142 315Z" fill="#af5203" stroke="#af5203"></path><path d="M394 178L324 184L348 233Z" fill="#d66607" stroke="#d66607"></path><path d="M324 184L227 188L276 255Z" fill="#ff7a0d" stroke="#ff7a0d"></path><path d="M114 219L102 241L177 259Z" fill="#ff7a0d" stroke="#ff7a0d"></path><path d="M114 219L177 259L217 217Z" fill="#ff7a0d" stroke="#ff7a0d"></path><path d="M0 263L0 298L42 306Z" fill="#bc5904" stroke="#bc5904"></path><path d="M0 570L0 695L95 629Z" fill="#bc5904" stroke="#bc5904"></path><path d="M65 742L43 809L142 802Z" fill="#c95f05" stroke="#c95f05"></path><path d="M0 298L0 343L42 306Z" fill="#a34c02" stroke="#a34c02"></path><path d="M42 306L0 343L47 378Z" fill="#e46d09" stroke="#e46d09"></path><path d="M0 706L29 744L88 693Z" fill="#bc5904" stroke="#bc5904"></path><path d="M0 695L0 706L88 693Z" fill="#7e3900" stroke="#7e3900"></path><path d="M92 867L159 844L142 802Z" fill="#ff7a0d" stroke="#ff7a0d"></path><path d="M142 802L159 844L198 781Z" fill="#e46d09" stroke="#e46d09"></path><path d="M467 145L414 187L449 262Z" fill="#f1730b" stroke="#f1730b"></path><path d="M411 231L394 178L348 233Z" fill="#d66607" stroke="#d66607"></path><path d="M227 188L114 219L217 217Z" fill="#a34c02" stroke="#a34c02"></path><path d="M0 263L42 306L90 264Z" fill="#f1730b" stroke="#f1730b"></path><path d="M414 187L394 178L411 231Z" fill="#7e3900" stroke="#7e3900"></path><path d="M324 184L238 150L227 188Z" fill="#af5203" stroke="#af5203"></path><path d="M159 844L209 876L198 781Z" fill="#964601" stroke="#964601"></path><path d="M0 263L90 264L38 211Z" fill="#8a3f01" stroke="#8a3f01"></path><path d="M311 144L238 150L324 184Z" fill="#f1730b" stroke="#f1730b"></path><path d="M227 188L159 98L114 219Z" fill="#7e3900" stroke="#7e3900"></path><path d="M394 178L311 144L324 184Z" fill="#a34c02" stroke="#a34c02"></path><path d="M454 809L540 814L480 743Z" fill="#e46d09" stroke="#e46d09"></path><path d="M475 879L540 814L454 809Z" fill="#ff7a0d" stroke="#ff7a0d"></path><path d="M475 879L454 809L436 815Z" fill="#ff7a0d" stroke="#ff7a0d"></path><path d="M416 899L436 815L392 906Z" fill="#e46d09" stroke="#e46d09"></path><path d="M0 787L43 809L29 744Z" fill="#8a3f01" stroke="#8a3f01"></path><path d="M29 744L43 809L65 742Z" fill="#e46d09" stroke="#e46d09"></path><path d="M159 844L151 960L209 876Z" fill="#7e3900" stroke="#7e3900"></path><path d="M540 304L540 218L449 262Z" fill="#964601" stroke="#964601"></path><path d="M414 187L422 142L394 178Z" fill="#f1730b" stroke="#f1730b"></path><path d="M394 178L376 93L311 144Z" fill="#c95f05" stroke="#c95f05"></path><path d="M38 211L90 264L102 241Z" fill="#e46d09" stroke="#e46d09"></path><path d="M38 211L102 241L114 219Z" fill="#e46d09" stroke="#e46d09"></path><path d="M392 906L436 815L321 846Z" fill="#a34c02" stroke="#a34c02"></path><path d="M302 921L392 906L321 846Z" fill="#af5203" stroke="#af5203"></path><path d="M467 145L422 142L414 187Z" fill="#f1730b" stroke="#f1730b"></path><path d="M454 893L475 879L436 815Z" fill="#bc5904" stroke="#bc5904"></path><path d="M0 706L0 787L29 744Z" fill="#964601" stroke="#964601"></path><path d="M232 925L263 829L209 876Z" fill="#8a3f01" stroke="#8a3f01"></path><path d="M232 925L302 921L263 829Z" fill="#d66607" stroke="#d66607"></path><path d="M65 881L92 867L43 809Z" fill="#7e3900" stroke="#7e3900"></path><path d="M43 809L92 867L142 802Z" fill="#d66607" stroke="#d66607"></path><path d="M456 960L454 893L416 899Z" fill="#e46d09" stroke="#e46d09"></path><path d="M416 899L454 893L436 815Z" fill="#8a3f01" stroke="#8a3f01"></path><path d="M51 152L38 211L114 219Z" fill="#8a3f01" stroke="#8a3f01"></path><path d="M219 960L232 925L216 960Z" fill="#a34c02" stroke="#a34c02"></path><path d="M540 218L467 145L449 262Z" fill="#c95f05" stroke="#c95f05"></path><path d="M540 218L540 179L467 145Z" fill="#d66607" stroke="#d66607"></path><path d="M540 897L540 865L475 879Z" fill="#964601" stroke="#964601"></path><path d="M475 879L540 865L540 814Z" fill="#8a3f01" stroke="#8a3f01"></path><path d="M540 179L474 130L467 145Z" fill="#bc5904" stroke="#bc5904"></path><path d="M467 145L474 130L422 142Z" fill="#f1730b" stroke="#f1730b"></path><path d="M422 142L376 93L394 178Z" fill="#c95f05" stroke="#c95f05"></path><path d="M311 144L314 81L238 150Z" fill="#e46d09" stroke="#e46d09"></path><path d="M0 859L65 881L43 809Z" fill="#c95f05" stroke="#c95f05"></path><path d="M216 960L232 925L151 960Z" fill="#f1730b" stroke="#f1730b"></path><path d="M425 33L376 93L422 142Z" fill="#e46d09" stroke="#e46d09"></path><path d="M88 114L51 152L114 219Z" fill="#e46d09" stroke="#e46d09"></path><path d="M219 960L296 960L232 925Z" fill="#964601" stroke="#964601"></path><path d="M232 925L296 960L302 921Z" fill="#ff7a0d" stroke="#ff7a0d"></path><path d="M302 921L327 960L392 906Z" fill="#d66607" stroke="#d66607"></path><path d="M392 906L393 960L416 899Z" fill="#af5203" stroke="#af5203"></path><path d="M456 960L540 897L475 879Z" fill="#964601" stroke="#964601"></path><path d="M296 960L327 960L302 921Z" fill="#a34c02" stroke="#a34c02"></path><path d="M376 93L314 81L311 144Z" fill="#7e3900" stroke="#7e3900"></path><path d="M159 98L227 188L238 150Z" fill="#e46d09" stroke="#e46d09"></path><path d="M38 211L0 151L0 263Z" fill="#d66607" stroke="#d66607"></path><path d="M189 86L159 98L238 150Z" fill="#e46d09" stroke="#e46d09"></path><path d="M232 925L209 876L151 960Z" fill="#8a3f01" stroke="#8a3f01"></path><path d="M151 960L159 844L92 867Z" fill="#d66607" stroke="#d66607"></path><path d="M456 960L475 879L454 893Z" fill="#964601" stroke="#964601"></path><path d="M189 86L155 97L159 98Z" fill="#c95f05" stroke="#c95f05"></path><path d="M159 98L155 97L114 219Z" fill="#8a3f01" stroke="#8a3f01"></path><path d="M314 81L189 86L238 150Z" fill="#f1730b" stroke="#f1730b"></path><path d="M327 960L393 960L392 906Z" fill="#8a3f01" stroke="#8a3f01"></path><path d="M0 787L0 859L43 809Z" fill="#ff7a0d" stroke="#ff7a0d"></path><path d="M69 960L151 960L92 867Z" fill="#a34c02" stroke="#a34c02"></path><path d="M0 859L0 864L65 881Z" fill="#d66607" stroke="#d66607"></path><path d="M156 32L88 114L155 97Z" fill="#bc5904" stroke="#bc5904"></path><path d="M155 97L88 114L114 219Z" fill="#a34c02" stroke="#a34c02"></path><path d="M69 960L92 867L65 881Z" fill="#a34c02" stroke="#a34c02"></path><path d="M393 960L456 960L416 899Z" fill="#f1730b" stroke="#f1730b"></path><path d="M0 149L0 151L51 152Z" fill="#7e3900" stroke="#7e3900"></path><path d="M51 152L0 151L38 211Z" fill="#f1730b" stroke="#f1730b"></path><path d="M0 73L0 149L51 152Z" fill="#d66607" stroke="#d66607"></path><path d="M425 33L354 40L376 93Z" fill="#c95f05" stroke="#c95f05"></path><path d="M376 93L354 40L314 81Z" fill="#a34c02" stroke="#a34c02"></path><path d="M540 179L540 106L474 130Z" fill="#f1730b" stroke="#f1730b"></path><path d="M425 33L422 142L474 130Z" fill="#e46d09" stroke="#e46d09"></path><path d="M314 81L201 29L189 86Z" fill="#a34c02" stroke="#a34c02"></path><path d="M189 86L156 32L155 97Z" fill="#e46d09" stroke="#e46d09"></path><path d="M0 960L69 960L65 881Z" fill="#bc5904" stroke="#bc5904"></path><path d="M456 960L540 960L540 897Z" fill="#c95f05" stroke="#c95f05"></path><path d="M317 0L201 29L314 81Z" fill="#af5203" stroke="#af5203"></path><path d="M88 114L0 73L51 152Z" fill="#964601" stroke="#964601"></path><path d="M488 34L425 33L474 130Z" fill="#af5203" stroke="#af5203"></path><path d="M354 40L317 0L314 81Z" fill="#af5203" stroke="#af5203"></path><path d="M201 29L156 32L189 86Z" fill="#e46d09" stroke="#e46d09"></path><path d="M380 0L317 0L354 40Z" fill="#c95f05" stroke="#c95f05"></path><path d="M201 29L205 0L156 32Z" fill="#8a3f01" stroke="#8a3f01"></path><path d="M540 106L488 34L474 130Z" fill="#ff7a0d" stroke="#ff7a0d"></path><path d="M391 0L380 0L354 40Z" fill="#c95f05" stroke="#c95f05"></path><path d="M391 0L354 40L425 33Z" fill="#bc5904" stroke="#bc5904"></path><path d="M317 0L207 0L201 29Z" fill="#ff7a0d" stroke="#ff7a0d"></path><path d="M447 0L391 0L425 33Z" fill="#a34c02" stroke="#a34c02"></path><path d="M207 0L205 0L201 29Z" fill="#964601" stroke="#964601"></path><path d="M0 864L0 960L65 881Z" fill="#7e3900" stroke="#7e3900"></path><path d="M540 106L540 48L488 34Z" fill="#a34c02" stroke="#a34c02"></path><path d="M488 34L447 0L425 33Z" fill="#8a3f01" stroke="#8a3f01"></path><path d="M28 39L88 114L96 0Z" fill="#e46d09" stroke="#e46d09"></path><path d="M28 39L0 73L88 114Z" fill="#d66607" stroke="#d66607"></path><path d="M540 0L447 0L488 34Z" fill="#f1730b" stroke="#f1730b"></path><path d="M101 0L88 114L156 32Z" fill="#c95f05" stroke="#c95f05"></path><path d="M205 0L101 0L156 32Z" fill="#ff7a0d" stroke="#ff7a0d"></path><path d="M101 0L96 0L88 114Z" fill="#f1730b" stroke="#f1730b"></path><path d="M540 48L540 0L488 34Z" fill="#a34c02" stroke="#a34c02"></path><path d="M96 0L0 0L28 39Z" fill="#f1730b" stroke="#f1730b"></path><path d="M28 39L0 0L0 73Z" fill="#bc5904" stroke="#bc5904"></path></g></svg>